# xmcd CD database file
#
# Track frame offsets:
#	150
#	16145
#	37301
#	48979
#	60535
#	74503
#	84489
#	99250
#	112119
#	129569
#	148357
#	164829
#	178772
#	192585
#	204208
#	222154
#	235007
#	245370
#	258234
#	271728
#	283422
#	296137
#	307775
#
# Disc length: 4349 seconds
#
# Revision: 1
# Processed by: cddbd v1.5.1PL0 Copyright (c) Steve Scherf et al.
# Submitted via: CDex 1.51
#
DISCID=6310fb17
DTITLE=Angélica María - Donde oyes 1 oyes 2
DYEAR=1999
DGENRE=Ballad
TTITLE0=No volverás a verme
TTITLE1=Defectos
TTITLE2=Cómo, cuándo y por qué
TTITLE3=Una lágrima dijo adiós
TTITLE4=Perdona mis celos
TTITLE5=A tu olvido
TTITLE6=La reconciliación
TTITLE7=Ven a mi soledad
TTITLE8=Poco a poco
TTITLE9=Con tu amor
TTITLE10=Confía en mí
TTITLE11=Adiós cariño
TTITLE12=Enmedio
TTITLE13=Otra vez vuelvo contigo
TTITLE14=Tú sigues siendo el mismo
TTITLE15=Paloma de dos colores
TTITLE16=Me gusta estar contigo
TTITLE17=Propuesta
TTITLE18=No creo más en tí
TTITLE19=Las palomas
TTITLE20=Vidita mía
TTITLE21=Amanecí en tus brazos
TTITLE22=Desde hoy
EXTD=YEAR: 1999
EXTT0=
EXTT1=
EXTT2=
EXTT3=
EXTT4=
EXTT5=
EXTT6=
EXTT7=
EXTT8=
EXTT9=
EXTT10=
EXTT11=
EXTT12=
EXTT13=
EXTT14=
EXTT15=
EXTT16=
EXTT17=
EXTT18=
EXTT19=
EXTT20=
EXTT21=
EXTT22=
PLAYORDER=
